HIERARCHY
ROOT RootJoint
{
    OFFSET   0.000000   0.000000   0.000000
    CHANNELS 6 Xposition Yposition Zposition Xrotation Yrotation Zrotation
    JOINT pelvis_lowerback
    {
        OFFSET   0.000000   0.093605   0.000000
        CHANNELS 3 Xrotation Yrotation Zrotation
        JOINT lowerback_torso
        {
            OFFSET   0.000000   0.100000   0.000000
            CHANNELS 3 Xrotation Yrotation Zrotation
            JOINT torso_head
            {
                OFFSET   0.000000   0.282350   0.000000
                CHANNELS 3 Xrotation Yrotation Zrotation
                End Site
                {
                    OFFSET   0.000000   0.192650   0.000000
                }
            }
            JOINT rTorso_Clavicle
            {
                OFFSET  -0.001000   0.157500   0.000000
                CHANNELS 3 Xrotation Yrotation Zrotation
                JOINT rShoulder
                {
                    OFFSET  -0.117647   0.000000   0.000000
                    CHANNELS 3 Xrotation Yrotation Zrotation
                    JOINT rElbow
                    {
                        OFFSET  -0.245000   0.000000   0.000000
                        CHANNELS 3 Xrotation Yrotation Zrotation
                        JOINT rWrist
                        {
                            OFFSET  -0.240000   0.000000   0.000000
                            CHANNELS 3 Xrotation Yrotation Zrotation
                            End Site
                            {
                                OFFSET  -0.116353  -0.002500   0.000000
                            }
                        }
                    }
                }
            }
            JOINT lTorso_Clavicle
            {
                OFFSET   0.001000   0.157500   0.000000
                CHANNELS 3 Xrotation Yrotation Zrotation
                JOINT lShoulder
                {
                    OFFSET   0.117647   0.000000   0.000000
                    CHANNELS 3 Xrotation Yrotation Zrotation
                    JOINT lElbow
                    {
                        OFFSET   0.245000   0.000000   0.000000
                        CHANNELS 3 Xrotation Yrotation Zrotation
                        JOINT lWrist
                        {
                            OFFSET   0.240000   0.000000   0.000000
                            CHANNELS 3 Xrotation Yrotation Zrotation
                            End Site
                            {
                                OFFSET   0.116353  -0.002500   0.000000
                            }
                        }
                    }
                }
            }
        }
    }
    JOINT rHip
    {
        OFFSET  -0.100000  -0.051395   0.000000
        CHANNELS 3 Xrotation Yrotation Zrotation
        JOINT rKnee
        {
            OFFSET   0.000000  -0.410000   0.000000
            CHANNELS 3 Xrotation Yrotation Zrotation
            JOINT rAnkle
            {
                OFFSET   0.000000  -0.390000   0.000000
                CHANNELS 3 Xrotation Yrotation Zrotation
                JOINT rToeJoint
                {
                    OFFSET   0.000000  -0.050000   0.130000
                    CHANNELS 3 Xrotation Yrotation Zrotation
                    End Site
                    {
                        OFFSET  -0.010000   0.002000   0.060000
                    }
                }
            }
        }
    }
    JOINT lHip
    {
        OFFSET   0.100000  -0.051395   0.000000
        CHANNELS 3 Xrotation Yrotation Zrotation
        JOINT lKnee
        {
            OFFSET   0.000000  -0.410000   0.000000
            CHANNELS 3 Xrotation Yrotation Zrotation
            JOINT lAnkle
            {
                OFFSET   0.000000  -0.390000   0.000000
                CHANNELS 3 Xrotation Yrotation Zrotation
                JOINT lToeJoint
                {
                    OFFSET   0.000000  -0.050000   0.130000
                    CHANNELS 3 Xrotation Yrotation Zrotation
                    End Site
                    {
                        OFFSET   0.010000   0.002000   0.060000
                    }
                }
            }
        }
    }
}
MOTION
Frames: 14
Frame Time:   0.008333
 -2.376719   0.925631   3.975860   0.000000   0.000000   0.000000   0.000000   0.000000   0.000000   0.000000   0.000000   0.000000   0.000000   0.000000   0.000000   0.000000   0.000000   0.000000   0.000000   0.000000   0.000000   0.000000   0.000000   0.000000   0.000000   0.000000   0.000000   0.000000   0.000000   0.000000   0.000000   0.000000   0.000000   0.000000   0.000000   0.000000   0.000000   0.000000   0.000000   0.000000   0.000000   0.000000   0.000000   0.000000   0.000000   0.000000   0.000000   0.000000   0.000000   0.000000   0.000000   0.000000   0.000000   0.000000   0.000000   0.000000   0.000000   0.000000   0.000000   0.000000   0.000000   0.000000   0.000000
 -2.375824   0.925527   3.973660   2.065591  -0.289645   0.664789  -2.056613   0.312192  -0.495932   0.082289  -0.154000  -0.301851  -0.172913  -0.308733   0.148562   0.289697  -0.466640  -0.665168   0.396572  -0.007220   2.714594   0.013697   0.820816  -0.005561   0.089365   0.220977  -2.044061   0.262902   0.681005   0.716372   0.811713   0.117090  -2.420753   0.010064  -0.621739   0.006310   0.038488  -0.357114   1.860793  -3.277231  -0.387465  -0.796687   2.027661   0.002287  -0.012715  -1.308315  -0.535271   0.803084  -0.089177   0.000509   0.000970  -2.825149   0.478644  -0.909326   1.110211   0.002540   0.001475  -0.662343   0.669995   0.325223   0.109582  -0.000060   0.000791
 -2.374698   0.925450   3.971200   4.064340  -0.581086   1.424256  -3.860591   0.630027  -0.992601   0.182268  -0.292324  -0.675007  -0.339141  -0.614587   0.279203   0.558690  -1.014098  -0.859739   0.792808  -0.071342   5.800712   0.029421   1.581684  -0.010498   0.210356   0.578586  -3.506820   0.512124   1.473858   0.893704   1.585135   0.301419  -5.095245   0.020954  -1.175369   0.011202   0.118100  -0.731700   3.069471  -6.539184  -0.745005  -1.673874   3.980230   0.003293  -0.023563  -2.518605  -1.066302   1.536615  -0.179326   0.000871   0.001798  -5.562738   0.995762  -1.958206   2.136365   0.005133   0.002096  -1.289186   1.297564   0.636166   0.163472  -0.000029   0.000984
 -2.373531   0.925894   3.968748   5.937780  -0.807104   2.031534  -5.464527   0.921699  -1.334303   0.340457  -0.430375  -1.002696  -0.473025  -0.902415   0.403873   0.811351  -1.590563  -0.692203   1.190774  -0.169008   9.122655   0.044219   2.271911  -0.014222   0.330428   0.856036  -4.454383   0.749384   2.279267   0.632167   2.319293   0.487799  -7.896097   0.030659  -1.670257   0.014600   0.196477  -0.998006   3.677999  -9.666314  -1.018140  -2.458258   5.873460   0.004640  -0.030463  -3.510645  -1.554427   2.179068  -0.253424   0.000978   0.002191  -8.133925   1.521511  -2.873836   3.077273   0.007349   0.002642  -1.878244   1.878831   0.932382   0.211555   0.000021   0.001092
 -2.372354   0.926089   3.966395   7.702022  -0.989797   2.637358  -6.914875   1.201776  -1.690580   0.530970  -0.561967  -1.305726  -0.580070  -1.171099   0.520982   1.054248  -2.167220  -0.252682   1.571941  -0.267445  12.443779   0.055838   2.902824  -0.016592   0.443095   1.053367  -4.873067   0.978488   3.068215   0.145021   3.016189   0.653964 -10.700219   0.038093  -2.119875   0.016717   0.268997  -1.186543   3.817819 -12.596989  -1.251194  -3.231376   7.614924   0.005154  -0.034745  -4.512929  -2.038397   2.793229  -0.331348   0.001064   0.002520 -10.542974   2.058025  -3.803277   3.943755   0.009166   0.002960  -2.433231   2.417805   1.214037   0.241041   0.000059   0.001051
 -2.371197   0.925957   3.964161   9.369231  -1.152394   3.191093  -8.237652   1.474050  -2.004226   0.733284  -0.682885  -1.578284  -0.668063  -1.421725   0.627408   1.288652  -2.725127   0.357457   1.935755  -0.354717  15.688160   0.064083   3.483762  -0.017831   0.547166   1.196391  -4.952876   1.200881   3.826812  -0.492098   3.676077   0.791988 -13.450793   0.043234  -2.532301   0.017813   0.335449  -1.325668   3.662703 -15.362159  -1.437158  -3.933061   9.232144   0.005084  -0.037053  -5.439827  -2.502011   3.362474  -0.411261   0.001118   0.002767 -12.801107   2.599084  -4.683325   4.744412   0.010538   0.003032  -2.954711   2.917911   1.481585   0.262391   0.000085   0.000960
 -2.370069   0.925510   3.962075  10.942854  -1.304093   3.680500  -9.451044   1.737321  -2.268076   0.937045  -0.792975  -1.815526  -0.741313  -1.655552   0.726413   1.514952  -3.256477   1.070284   2.281631  -0.426784  18.817557   0.069234   4.021039  -0.018168   0.643601   1.303464  -4.814356   1.416943   4.549014  -1.219080   4.299053   0.900460 -16.112953   0.046322  -2.912834   0.018117   0.396574  -1.432695   3.319141 -17.976499  -1.585206  -4.549769  10.753426   0.004673  -0.037994  -6.285713  -2.945311   3.893525  -0.486467   0.001128   0.002888 -14.911735   3.138385  -5.499307   5.486122   0.011518   0.002932  -3.443979   3.382244   1.735506   0.280735   0.000106   0.000864
 -2.368974   0.923858   3.960230  11.964186  -1.725433   4.101070 -10.114291   2.179325  -2.452657   1.188461  -0.950037  -1.973717  -0.856576  -2.033385   0.785173   1.771818  -3.584978   1.377067   2.656662  -0.189793  21.776995   0.070281   4.534960  -0.019012   0.730230   0.995163  -4.044207   1.641110   5.358386  -1.382209   4.794535   0.722459 -19.099113   0.053285  -3.487317   0.020033   0.397204  -1.292248   2.572866 -20.459623  -1.938474  -4.988248  13.748575   0.000599  -0.058823  -7.069665  -3.504245   4.376698  -0.905123   0.002043   0.008512 -16.336352   3.761559  -6.202492   6.303197   0.012677   0.001833  -3.958250   3.969125   2.321390   0.390822  -0.000001   0.001242
 -2.367937   0.921188   3.958798  12.840945  -2.133872   4.485103 -10.755848   2.593635  -2.607130   1.448159  -1.091940  -2.113183  -0.950396  -2.396280   0.844841   1.998684  -3.822862   1.533314   2.975317   0.095381  24.449934   0.068903   5.036739  -0.018840   0.830627   0.749637  -3.331263   1.843308   6.075932  -1.442237   5.235343   0.501812 -21.835100   0.056722  -4.046981   0.020544   0.409041  -1.275533   1.818776 -22.720639  -2.291006  -5.342915  16.775826  -0.005985  -0.074722  -7.778964  -4.037363   4.819623  -1.239489   0.002531   0.011705 -17.554295   4.345524  -6.871506   7.132234   0.013707   0.000758  -4.439448   4.514024   2.873897   0.508552  -0.000052   0.001516
 -2.366966   0.917577   3.957695  13.648202  -2.513856   4.845602 -11.398095   2.985354  -2.746932   1.663956  -1.221050  -2.246597  -1.041627  -2.736071   0.902865   2.202443  -4.017681   1.592687   3.249875   0.389755  26.880616   0.065774   5.515141  -0.017856   0.934182   0.571301  -2.763578   2.026341   6.723963  -1.432063   5.629574   0.266934 -24.338390   0.057396  -4.577459   0.019925   0.424018  -1.317122   1.175119 -24.791355  -2.618263  -5.638262  19.649378  -0.013206  -0.083850  -8.435018  -4.539940   5.226282  -1.535602   0.002826   0.013487 -18.650014   4.900274  -7.519134   7.929957   0.014420  -0.000111  -4.891574   5.018087   3.393736   0.623982  -0.000057   0.001681
 -2.365976   0.913992   3.956380  14.397191  -2.979173   5.073880 -11.965134   3.386302  -2.761562   1.846244  -1.311406  -2.335417  -1.139917  -3.052521   0.960634   2.375093  -4.150869   1.628667   3.476726   0.702219  29.111721   0.061972   5.971721  -0.016678   1.035551   0.444814  -2.343857   2.187890   7.304058  -1.448705   5.978201   0.017988 -26.674163   0.056551  -5.077951   0.018969   0.436402  -1.381340   0.633210 -26.958121  -2.830285  -5.730220  21.985727  -0.018928  -0.084502  -9.787287  -4.926580   5.436657  -1.684347   0.002647   0.012440 -19.678172   5.430873  -8.020882   8.680021   0.014848  -0.001245  -5.314247   5.486206   3.883743   0.752783  -0.000009   0.001749
 -2.364985   0.910439   3.955190  15.032902  -3.292976   5.197599 -12.487188   3.701580  -2.739680   2.029542  -1.436275  -2.391843  -1.226112  -3.350080   1.020346   2.535565  -4.273717   1.649164   3.675071   1.001748  31.181632   0.057639   6.399607  -0.015310   1.134673   0.341626  -1.985858   2.327590   7.815260  -1.458988   6.283496  -0.245742 -28.847656   0.054691  -5.553355   0.017599   0.450031  -1.479477   0.137504 -29.018008  -2.975597  -5.791797  24.401428  -0.022404  -0.080224 -10.874010  -5.245293   5.626164  -1.936262   0.002586   0.012111 -20.586052   5.916976  -8.486136   9.392583   0.015234  -0.001299  -5.712106   5.917782   4.343931   0.875535   0.000087   0.001889
 -2.363969   0.906773   3.954189  15.584815  -3.607388   5.307612 -12.983370   4.016477  -2.736468   2.199246  -1.543962  -2.442479  -1.304635  -3.626741   1.077678   2.683617  -4.383445   1.653034   3.847800   1.289505  33.106056   0.052988   6.801083  -0.013761   1.231324   0.255605  -1.657308   2.455647   8.291017  -1.441093   6.557630  -0.501260 -30.858042   0.051981  -5.998755   0.015943   0.462504  -1.588987  -0.315507 -30.946888  -3.214175  -5.845926  26.715946  -0.025705  -0.077435 -11.853730  -5.651630   5.818712  -2.159986   0.002504   0.011932 -21.377545   6.380501  -8.959163  10.061635   0.015451  -0.001440  -6.087178   6.318741   4.776728   0.985799   0.000199   0.001905
 -2.362858   0.905651   3.953191  15.929019  -3.830942   5.718488 -13.050088   4.222445  -3.079933   2.132911  -1.628165  -2.505541  -1.399186  -3.825842   1.030412   2.719414  -4.537485   1.519654   4.008829   1.709831  34.971476   0.051094   7.368614  -0.012645   1.224190   0.089825  -0.980250   2.559076   8.722946  -1.320010   6.741439  -0.767710 -32.826041   0.053682  -6.701290   0.015259   0.430063  -1.428439  -1.022758 -32.419423  -3.630355  -6.261404  28.295589  -0.026849  -0.073866 -11.810398  -6.125756   6.043780  -1.976098   0.001665   0.007140 -22.008672   6.419860  -9.357047  10.466806   0.012688  -0.002724  -5.854694   6.773024   5.274212   1.184233  -0.000528   0.001565
